<?xml version="1.0" encoding="UTF-8"?>
<svg id="AtomWaveBank" xmlns="http://www.w3.org/2000/svg" xmlns:xlink="http://www.w3.org/1999/xlink" viewBox="0 0 288.24 273.17">
  <defs>
    <style>
      .cls-1 {
        fill: #f7f8f8;
      }

      .cls-2 {
        fill: #dcdddd;
      }

      .cls-3 {
        fill: #3e3a39;
      }

      .cls-4 {
        fill: #595757;
      }

      .cls-5 {
        fill: url(#_名称未設定グラデーション_15);
      }

      .cls-6 {
        fill: #efefef;
      }

      .cls-7 {
        fill: url(#_名称未設定グラデーション_14);
      }

      .cls-8 {
        fill: #b5b5b6;
      }

      .cls-9 {
        fill: #727171;
      }
    </style>
    <linearGradient id="_名称未設定グラデーション_14" data-name="名称未設定グラデーション 14" x1="21.42" y1="183.87" x2="214.52" y2="183.87" gradientUnits="userSpaceOnUse">
      <stop offset=".19" stop-color="#595757"/>
      <stop offset="1" stop-color="#9fa0a0"/>
    </linearGradient>
    <linearGradient id="_名称未設定グラデーション_15" data-name="名称未設定グラデーション 15" x1="12.29" y1="103.22" x2="205.01" y2="103.22" gradientUnits="userSpaceOnUse">
      <stop offset=".19" stop-color="#595757"/>
      <stop offset="1" stop-color="#9fa0a0"/>
    </linearGradient>
  </defs>
  <g id="_レイヤー_13のコピー" data-name="レイヤー 13のコピー">
    <polygon class="cls-3" points="7.51 135.9 17.47 156.9 17.47 209.57 81.7 252.4 217.7 213.4 217.7 156.9 157.13 118.9 210.48 69.27 197.67 48.27 60.53 79.99 7.51 135.9"/>
  </g>
  <polygon class="cls-7" points="21.42 156.84 21.42 207.48 82.13 247.37 214.52 210.37 214.52 158.37 152.52 120.37 21.42 156.84"/>
  <polygon class="cls-5" points="20.59 152.83 12.29 136.15 64.49 83.61 196.49 53.61 205.01 67.9 151.49 117.61 20.59 152.83"/>
  <g id="_レイヤー_9のコピー" data-name="レイヤー 9のコピー">
    <polygon class="cls-3" points="36.55 157.12 83.6 187.84 202.6 157.84 151.6 125.84 36.55 157.12"/>
  </g>
  <g id="_レイヤー_11のコピー" data-name="レイヤー 11のコピー">
    <polygon class="cls-9" points="44.09 158.37 84.38 184.84 148.6 167.84 148.6 130.18 44.09 158.37"/>
    <polygon class="cls-9" points="152.6 166.84 194.74 156.73 152.6 129.84 152.6 166.84"/>
  </g>
  <g id="_レイヤー_10のコピー" data-name="レイヤー 10のコピー">
    <polygon class="cls-6" points="25.74 155.64 81.6 191.84 210.6 158.84 149.46 121.37 152.98 120.37 214.52 158.14 214.52 210.37 211.6 211.19 211.6 162.84 182.6 169.84 182.6 197.84 112.6 215.84 112.6 188.84 82.13 196.08 82.13 247.37 79.18 245.44 79.59 195.91 21.42 156.84 25.74 155.64"/>
    <polygon class="cls-2" points="13.98 139.23 62.6 88.84 69.15 100.27 18.91 149.38 20.59 152.83 73.6 100.84 63.6 83.84 12.45 135.99 13.98 139.23"/>
  </g>
  <g id="_レイヤー_12のコピー" data-name="レイヤー 12のコピー">
    <polygon class="cls-2" points="63.6 83.84 196.03 52.31 205.03 67.89 73.6 100.84 71.81 97.8 200.69 65.86 194.91 55.4 65.28 86.7 63.6 83.84"/>
  </g>
  <g id="_レイヤー_14のコピー" data-name="レイヤー 14のコピー">
    <ellipse class="cls-4" cx="129.63" cy="194.04" rx="4.08" ry="3.18" transform="translate(-101.52 162.07) rotate(-48.38)"/>
    <ellipse class="cls-4" cx="163.52" cy="187.12" rx="13.29" ry="10.39" transform="translate(-83.71 212.22) rotate(-54.65)"/>
    <polygon class="cls-4" points="131.25 202.65 128.49 203.33 128.49 197.14 131.25 196.45 131.25 202.65"/>
    <ellipse class="cls-8" cx="165.15" cy="188.03" rx="7.35" ry="5.67" transform="translate(-78.55 244.94) rotate(-61.85)"/>
  </g>
  <g id="_レイヤー_7のコピー" data-name="レイヤー 7のコピー">
    <path class="cls-3" d="m164.6,248.68c-.25,0-.51-.03-.77-.11-1.4-.39-2.27-1.78-2.03-3.21l13.6-79.32-25.18,61.87c-.44,1.09-1.5,1.77-2.62,1.77-.23,0-.46-.03-.69-.08-1.37-.34-2.28-1.64-2.13-3.04l5.5-52.64-8.18,15.27c-.49.92-1.46,1.5-2.5,1.5-.04,0-44.13-2-44.13-2-1.5-.07-2.69-1.29-2.71-2.79-.02-1.5,1.14-2.76,2.63-2.86l40.45-2.89,22.34-41.14c.51-.93,1.47-1.48,2.49-1.48.27,0,.55.04.82.12,1.29.39,2.12,1.63,2,2.97l-3.36,36.71,15.03-36.61c-.5.92-1.46,1.48-2.49,1.48-.24,0-.48-.03-.72-.09-1.36-.35-2.25-1.65-2.1-3.05l5.44-50.73-7.23,12.91c-.5.9-1.45,1.45-2.47,1.45-.04,0-.09,0-.13,0l-43-2c-1.5-.07-2.68-1.29-2.7-2.79-.02-1.5,1.13-2.75,2.62-2.87l38.48-2.89,23.26-41.67c.51-.92,1.47-1.45,2.48-1.45.28,0,.56.04.84.13,1.28.4,2.11,1.64,1.98,2.97l-3.39,36.65,29.98-68.06c.46-1.05,1.5-1.69,2.59-1.69.27,0,.55.04.82.12,1.37.42,2.22,1.79,1.97,3.21l-13.37,75.51,13.02-27.23c.48-1,1.48-1.61,2.56-1.61.18,0,.37.02.55.05,1.27.25,2.21,1.33,2.28,2.63l2.87,53.57,38.58,3.76c1.48.14,2.59,1.41,2.56,2.89s-1.21,2.69-2.7,2.76l-39.29,1.92-27.28,58.45c-.47,1.01-1.48,1.64-2.57,1.64-.19,0-.38-.02-.57-.06-1.29-.26-2.22-1.38-2.26-2.69l-.56-17.4-27.97,70.35c-.44,1.1-1.5,1.79-2.63,1.79Zm19.54-71.53l7.88-19.86c-.43.25-.92.38-1.42.38-.27,0-.55-.04-.83-.12-.92-.28-1.61-1-1.88-1.87l-3.75,21.47Zm17.46-39.14c.16,0,.33.01.49.04,1.32.23,2.3,1.36,2.34,2.71l.62,21.24,13.68-31.67-1.38-27.66-16.02,35.35c.09,0,.18-.01.26-.01Zm-7-40c.26,0,.53.04.79.11.73.21,1.32.69,1.67,1.31l2.78-16.52-6.58,15.43c.41-.22.87-.34,1.34-.34Z"/>
    <polygon class="cls-1" points="122.6 97.84 162.6 94.84 186.6 51.84 181.6 105.84 218.6 21.84 201.6 117.84 223.6 71.84 226.6 127.84 267.6 131.84 226.6 133.84 198.6 193.84 197.6 162.84 164.6 245.84 182.6 140.84 147.6 226.84 154.6 159.84 139.6 187.84 95.6 185.84 137.6 182.84 160.68 140.34 155.6 195.84 194.6 100.84 176.6 203.84 201.6 140.84 202.6 174.84 221.6 130.84 219.6 90.84 190.6 154.84 206.6 59.84 172.68 139.34 179.6 74.84 165.6 99.84 122.6 97.84"/>
  </g>
</svg>