<?xml version="1.0" encoding="UTF-8"?>
<svg id="AtomSoundCue" xmlns="http://www.w3.org/2000/svg" xmlns:xlink="http://www.w3.org/1999/xlink" viewBox="0 0 288.24 273.17">
  <defs>
    <style>
      .cls-1 {
        fill: #fff;
      }

      .cls-2 {
        fill: url(#_名称未設定グラデーション_4);
      }

      .cls-3 {
        fill: #dcdddd;
      }

      .cls-4 {
        fill: url(#_名称未設定グラデーション_6);
      }

      .cls-5 {
        fill: #3e3a39;
      }

      .cls-6 {
        fill: url(#_名称未設定グラデーション_11);
      }

      .cls-7 {
        fill: #b5b5b6;
      }
    </style>
    <linearGradient id="_名称未設定グラデーション_11" data-name="名称未設定グラデーション 11" x1="16.78" y1="129.77" x2="58.47" y2="129.77" gradientUnits="userSpaceOnUse">
      <stop offset=".2" stop-color="#595757"/>
      <stop offset=".54" stop-color="#a6a6a7"/>
    </linearGradient>
    <linearGradient id="_名称未設定グラデーション_4" data-name="名称未設定グラデーション 4" x1="49.2" y1="130.25" x2="157.12" y2="130.25" gradientUnits="userSpaceOnUse">
      <stop offset="0" stop-color="#393332"/>
      <stop offset=".2" stop-color="#3c3736"/>
      <stop offset=".41" stop-color="#484343"/>
      <stop offset=".63" stop-color="#5b5858"/>
      <stop offset=".85" stop-color="#767575"/>
      <stop offset="1" stop-color="#8d8d8e"/>
    </linearGradient>
    <linearGradient id="_名称未設定グラデーション_6" data-name="名称未設定グラデーション 6" x1="55.63" y1="129.39" x2="87.55" y2="129.39" gradientUnits="userSpaceOnUse">
      <stop offset="0" stop-color="#5c5a5a"/>
      <stop offset=".13" stop-color="#626060"/>
      <stop offset=".32" stop-color="#747373"/>
      <stop offset=".54" stop-color="#929191"/>
      <stop offset=".79" stop-color="#bbb"/>
      <stop offset="1" stop-color="#e6e6e6"/>
    </linearGradient>
  </defs>
  <g id="AtomSoundSimpleのコピー_2" data-name="AtomSoundSimpleのコピー 2">
    <path class="cls-5" d="m102.78,221.11c-.58,0-1.16-.01-1.74-.03-.62.02-1.24.03-1.87.03-13.47,0-26.5-5.09-37.69-14.71-10-8.6-18.09-20.44-23.51-34.35-15.83-.98-28.05-19.19-28.05-42.27s12.7-42,28.98-42.31c12.08-28.92,34.94-46.75,60.27-46.75.62,0,1.25.01,1.87.04.58-.02,1.16-.04,1.74-.04,18.99,0,36.85,11.7,49.01,32.12,10.38,16.21,16.1,36.83,16.1,58.08s-5.72,41.87-16.1,58.08c-12.16,20.41-30.02,32.12-49.01,32.12Z"/>
    <path class="cls-5" d="m163.58,130.91c0-21.31-5.82-40.8-15.46-55.81-10.94-18.4-27.2-30.07-45.34-30.07-.58,0-1.16.02-1.74.04-.62-.02-1.25-.04-1.87-.04-25.05,0-46.77,19.07-57.42,46.92-.8-.12-1.61-.18-2.44-.18-13.85,0-25.08,17.01-25.08,38s11.23,38,25.08,38c.55,0,1.09-.04,1.63-.09,10.33,29.03,32.52,49.11,58.22,49.11.63,0,1.25-.02,1.87-.04.58.02,1.16.04,1.74.04,18.15,0,34.4-11.67,45.34-30.07,9.64-15.01,15.46-34.51,15.46-55.81Z"/>
    <ellipse class="cls-6" cx="39.32" cy="129.77" rx="25.08" ry="38"/>
    <ellipse class="cls-7" cx="44.26" cy="129.01" rx="18.62" ry="33.44"/>
    <ellipse class="cls-5" cx="45.78" cy="129.39" rx="17.1" ry="30.02"/>
    <ellipse class="cls-5" cx="99.17" cy="130.91" rx="64.41" ry="85.89"/>
    <ellipse class="cls-3" cx="102.78" cy="130.91" rx="59.66" ry="85.89"/>
    <ellipse class="cls-2" cx="103.16" cy="130.25" rx="53.96" ry="79.52"/>
    <ellipse class="cls-4" cx="71.24" cy="129.39" rx="15.96" ry="21.66"/>
  </g>
  <g id="_レイヤー_5" data-name="レイヤー 5">
    <path class="cls-5" d="m181.58,226.68c-1.45,0-2.66-1.11-2.81-2.55l-11.77-116.9-11.6,75.04c-.21,1.38-1.39,2.39-2.79,2.4h-.01c-1.39,0-2.57-1-2.8-2.38l-10.85-65.94-5.61,21.2c-.33,1.25-1.46,2.11-2.74,2.11-.09,0-.19,0-.28-.01l-51-5c-1.47-.14-2.58-1.39-2.56-2.87.03-1.48,1.18-2.69,2.65-2.78l44.93-2.87,13.5-53.99c.32-1.27,1.45-2.15,2.75-2.15.04,0,.07,0,.11,0,1.34.05,2.46,1.03,2.69,2.35l8.9,51.91,12.5-90.82c.19-1.4,1.39-2.45,2.81-2.45h.04c1.43.02,2.62,1.11,2.78,2.53l11.51,106.9,8.86-64.98c.19-1.39,1.36-2.43,2.76-2.45.02,0,.03,0,.05,0,1.38,0,2.56.99,2.79,2.35l11.27,65,5.3-13.55c.43-1.09,1.48-1.8,2.64-1.8.07,0,.15,0,.22,0l51,4c1.48.12,2.62,1.35,2.61,2.83,0,1.48-1.15,2.71-2.63,2.82l-45.77,3.37-12.8,32.83c-.43,1.09-1.48,1.81-2.64,1.81-.08,0-.15,0-.23,0-1.25-.1-2.28-1.01-2.54-2.23l-8.32-38.81-10.09,92.52c-.16,1.44-1.37,2.53-2.82,2.53h-.01Z"/>
    <polygon class="cls-1" points="126.6 128.84 140.6 72.84 152.6 142.84 167.6 33.84 181.6 163.84 193.6 75.84 206.6 150.84 215.6 127.84 266.6 131.84 219.04 135.34 205.6 169.84 193.6 113.84 181.6 223.84 167.6 84.84 152.6 181.84 139.6 102.84 130.6 136.84 79.6 131.84 126.6 128.84"/>
  </g>
</svg>