<?xml version="1.0" encoding="UTF-8"?>
<svg id="AtomRack" xmlns="http://www.w3.org/2000/svg" xmlns:xlink="http://www.w3.org/1999/xlink" viewBox="0 0 288.24 273.17">
  <defs>
    <style>
      .cls-1 {
        fill: url(#_名称未設定グラデーション_4-2);
      }

      .cls-2 {
        fill: #f7f8f8;
      }

      .cls-3 {
        fill: url(#_名称未設定グラデーション_4);
      }

      .cls-4 {
        fill: #dcdddd;
      }

      .cls-5 {
        fill: url(#_名称未設定グラデーション_6);
      }

      .cls-6 {
        fill: #3e3a39;
      }

      .cls-7 {
        fill: url(#_名称未設定グラデーション_11-2);
      }

      .cls-8 {
        fill: url(#_名称未設定グラデーション_11);
      }

      .cls-9 {
        fill: #b5b5b6;
      }

      .cls-10 {
        fill: url(#_名称未設定グラデーション_6-2);
      }
    </style>
    <linearGradient id="_名称未設定グラデーション_11" data-name="名称未設定グラデーション 11" x1="44.51" y1="92.31" x2="78.5" y2="92.31" gradientUnits="userSpaceOnUse">
      <stop offset=".2" stop-color="#595757"/>
      <stop offset=".54" stop-color="#a6a6a7"/>
    </linearGradient>
    <linearGradient id="_名称未設定グラデーション_4" data-name="名称未設定グラデーション 4" x1="70.94" y1="92.7" x2="158.94" y2="92.7" gradientUnits="userSpaceOnUse">
      <stop offset="0" stop-color="#393332"/>
      <stop offset=".2" stop-color="#3c3736"/>
      <stop offset=".41" stop-color="#484343"/>
      <stop offset=".63" stop-color="#5b5858"/>
      <stop offset=".85" stop-color="#767575"/>
      <stop offset="1" stop-color="#8d8d8e"/>
    </linearGradient>
    <linearGradient id="_名称未設定グラデーション_6" data-name="名称未設定グラデーション 6" x1="76.19" y1="92" x2="102.21" y2="92" gradientUnits="userSpaceOnUse">
      <stop offset="0" stop-color="#5c5a5a"/>
      <stop offset=".13" stop-color="#626060"/>
      <stop offset=".32" stop-color="#747373"/>
      <stop offset=".54" stop-color="#929191"/>
      <stop offset=".79" stop-color="#bbb"/>
      <stop offset="1" stop-color="#e6e6e6"/>
    </linearGradient>
    <linearGradient id="_名称未設定グラデーション_11-2" data-name="名称未設定グラデーション 11" x1="20.51" y1="179.31" x2="54.5" y2="179.31" xlink:href="#_名称未設定グラデーション_11"/>
    <linearGradient id="_名称未設定グラデーション_4-2" data-name="名称未設定グラデーション 4" x1="46.94" y1="179.7" x2="134.94" y2="179.7" xlink:href="#_名称未設定グラデーション_4"/>
    <linearGradient id="_名称未設定グラデーション_6-2" data-name="名称未設定グラデーション 6" x1="52.19" y1="179" x2="78.21" y2="179" xlink:href="#_名称未設定グラデーション_6"/>
  </defs>
  <g id="AtomSoundSimpleのコピー_3" data-name="AtomSoundSimpleのコピー 3">
    <path class="cls-6" d="m114.63,166.78c-.48,0-.95-.01-1.42-.03-.51.02-1.01.03-1.52.03-10.98,0-21.61-4.15-30.73-11.99-8.15-7.01-14.75-16.66-19.17-28.01-12.91-.8-22.87-15.65-22.87-34.46s10.35-34.24,23.63-34.49c9.85-23.58,28.49-38.11,49.13-38.11.51,0,1.02.01,1.52.03.47-.02.94-.03,1.42-.03,15.48,0,30.05,9.54,39.96,26.18,8.47,13.21,13.13,30.03,13.13,47.35s-4.66,34.14-13.13,47.35c-9.91,16.64-24.47,26.18-39.96,26.18Z"/>
    <path class="cls-6" d="m164.2,93.24c0-17.37-4.75-33.27-12.6-45.51-8.92-15.01-22.17-24.52-36.97-24.52-.47,0-.95.01-1.42.03-.51-.02-1.02-.03-1.53-.03-20.43,0-38.13,15.55-46.81,38.26-.65-.1-1.32-.15-1.99-.15-11.29,0-20.45,13.87-20.45,30.98s9.16,30.98,20.45,30.98c.45,0,.89-.03,1.33-.07,8.42,23.67,26.51,40.04,47.47,40.04.51,0,1.02-.01,1.53-.03.47.02.94.03,1.42.03,14.8,0,28.05-9.51,36.97-24.52,7.86-12.24,12.6-28.13,12.6-45.51Z"/>
    <ellipse class="cls-8" cx="62.89" cy="92.31" rx="20.45" ry="30.98"/>
    <ellipse class="cls-9" cx="66.92" cy="91.69" rx="15.18" ry="27.27"/>
    <ellipse class="cls-6" cx="68.16" cy="92" rx="13.94" ry="24.48"/>
    <ellipse class="cls-6" cx="111.69" cy="93.24" rx="52.52" ry="70.02"/>
    <ellipse class="cls-4" cx="114.63" cy="93.24" rx="48.64" ry="70.02"/>
    <ellipse class="cls-3" cx="114.94" cy="92.7" rx="44" ry="64.84"/>
    <ellipse class="cls-5" cx="88.91" cy="92" rx="13.01" ry="17.66"/>
  </g>
  <g id="AtomSoundSimpleのコピー_4" data-name="AtomSoundSimpleのコピー 4">
    <path class="cls-6" d="m90.63,253.78c-.48,0-.95-.01-1.42-.03-.51.02-1.01.03-1.52.03-10.98,0-21.61-4.15-30.73-11.99-8.15-7.01-14.75-16.66-19.17-28.01-12.91-.8-22.87-15.65-22.87-34.46s10.35-34.24,23.63-34.49c9.85-23.58,28.49-38.11,49.13-38.11.51,0,1.02.01,1.52.03.47-.02.94-.03,1.42-.03,15.48,0,30.05,9.54,39.96,26.18,8.47,13.21,13.13,30.03,13.13,47.35s-4.66,34.14-13.13,47.35c-9.91,16.64-24.47,26.18-39.96,26.18Z"/>
    <path class="cls-6" d="m140.2,180.24c0-17.37-4.75-33.27-12.6-45.51-8.92-15.01-22.17-24.52-36.97-24.52-.47,0-.95.01-1.42.03-.51-.02-1.02-.03-1.53-.03-20.43,0-38.13,15.55-46.81,38.26-.65-.1-1.32-.15-1.99-.15-11.29,0-20.45,13.87-20.45,30.98s9.16,30.98,20.45,30.98c.45,0,.89-.03,1.33-.07,8.42,23.67,26.51,40.04,47.47,40.04.51,0,1.02-.01,1.53-.03.47.02.94.03,1.42.03,14.8,0,28.05-9.51,36.97-24.52,7.86-12.24,12.6-28.13,12.6-45.51Z"/>
    <ellipse class="cls-7" cx="38.89" cy="179.31" rx="20.45" ry="30.98"/>
    <ellipse class="cls-9" cx="42.92" cy="178.69" rx="15.18" ry="27.27"/>
    <ellipse class="cls-6" cx="44.16" cy="179" rx="13.94" ry="24.48"/>
    <ellipse class="cls-6" cx="87.69" cy="180.24" rx="52.52" ry="70.02"/>
    <ellipse class="cls-4" cx="90.63" cy="180.24" rx="48.64" ry="70.02"/>
    <ellipse class="cls-1" cx="90.94" cy="179.7" rx="44" ry="64.84"/>
    <ellipse class="cls-10" cx="64.91" cy="179" rx="13.01" ry="17.66"/>
  </g>
  <g id="_レイヤー_7" data-name="レイヤー 7">
    <path class="cls-6" d="m160.6,248.68c-.25,0-.51-.03-.77-.11-1.4-.39-2.27-1.78-2.03-3.21l13.6-79.32-25.18,61.87c-.44,1.09-1.5,1.77-2.62,1.77-.23,0-.46-.03-.69-.08-1.37-.34-2.28-1.64-2.13-3.04l5.5-52.64-8.18,15.27c-.49.92-1.46,1.5-2.5,1.5-.04,0-44.13-2-44.13-2-1.5-.07-2.69-1.29-2.71-2.79-.02-1.5,1.14-2.76,2.63-2.86l40.45-2.89,22.34-41.14c.51-.93,1.47-1.48,2.49-1.48.27,0,.55.04.82.12,1.29.39,2.12,1.63,2,2.97l-3.36,36.71,15.03-36.61c-.5.92-1.46,1.48-2.49,1.48-.24,0-.48-.03-.72-.09-1.36-.35-2.25-1.65-2.1-3.05l5.44-50.73-7.23,12.91c-.5.9-1.45,1.45-2.47,1.45-.04,0-.09,0-.13,0l-43-2c-1.5-.07-2.68-1.29-2.7-2.79-.02-1.5,1.13-2.75,2.62-2.87l38.48-2.89,23.26-41.67c.51-.92,1.47-1.45,2.48-1.45.28,0,.56.04.84.13,1.28.4,2.11,1.64,1.98,2.97l-3.39,36.65,29.98-68.06c.46-1.05,1.5-1.69,2.59-1.69.27,0,.55.04.82.12,1.37.42,2.22,1.79,1.97,3.21l-13.37,75.51,13.02-27.23c.48-1,1.48-1.61,2.56-1.61.18,0,.37.02.55.05,1.27.25,2.21,1.33,2.28,2.63l2.87,53.57,38.58,3.76c1.48.14,2.59,1.41,2.56,2.89s-1.21,2.69-2.7,2.76l-39.29,1.92-27.28,58.45c-.47,1.01-1.48,1.64-2.57,1.64-.19,0-.38-.02-.57-.06-1.29-.26-2.22-1.38-2.26-2.69l-.56-17.4-27.97,70.35c-.44,1.1-1.5,1.79-2.63,1.79Zm19.54-71.53l7.88-19.86c-.43.25-.92.38-1.42.38-.27,0-.55-.04-.83-.12-.92-.28-1.61-1-1.88-1.87l-3.75,21.47Zm17.46-39.14c.16,0,.33.01.49.04,1.32.23,2.3,1.36,2.34,2.71l.62,21.24,13.68-31.67-1.38-27.66-16.02,35.35c.09,0,.18-.01.26-.01Zm-7-40c.26,0,.53.04.79.11.73.21,1.32.69,1.67,1.31l2.78-16.52-6.58,15.43c.41-.22.87-.34,1.34-.34Z"/>
    <polygon class="cls-2" points="118.6 97.84 158.6 94.84 182.6 51.84 177.6 105.84 214.6 21.84 197.6 117.84 219.6 71.84 222.6 127.84 263.6 131.84 222.6 133.84 194.6 193.84 193.6 162.84 160.6 245.84 178.6 140.84 143.6 226.84 150.6 159.84 135.6 187.84 91.6 185.84 133.6 182.84 156.68 140.34 151.6 195.84 190.6 100.84 172.6 203.84 197.6 140.84 198.6 174.84 217.6 130.84 215.6 90.84 186.6 154.84 202.6 59.84 168.68 139.34 175.6 74.84 161.6 99.84 118.6 97.84"/>
  </g>
</svg>