<?xml version="1.0" encoding="utf-8"?>
<!-- Generator: Adobe Illustrator 28.0.0, SVG Export Plug-In . SVG Version: 6.00 Build 0)  -->
<svg version="1.1" id="AtomRack_x5F_setting" xmlns="http://www.w3.org/2000/svg" xmlns:xlink="http://www.w3.org/1999/xlink"
	 x="0px" y="0px" viewBox="0 0 283.46 283.46" style="enable-background:new 0 0 283.46 283.46;" xml:space="preserve">
<style type="text/css">
	.st0{fill:#3E3A39;}
	.st1{fill:url(#SVGID_1_);}
	.st2{fill:#B5B5B6;}
	.st3{fill:#DCDDDD;}
	.st4{fill:url(#SVGID_00000036949236174753794780000012722843532330969773_);}
	.st5{fill:url(#SVGID_00000027596789756746798080000017067118049320584833_);}
	.st6{fill:url(#SVGID_00000006695044711622635460000006296242146912498049_);}
	.st7{fill:url(#SVGID_00000123409788999249911240000006119937431332438697_);}
	.st8{fill:url(#SVGID_00000144309090347905489750000012316522099398052516_);}
	.st9{fill:#F7F8F8;}
	.st10{fill:url(#SVGID_00000101788405457878238580000012500875308979665322_);}
	.st11{fill:#727171;}
	.st12{fill:url(#SVGID_00000181777277693779423020000001436348081453628325_);}
</style>
<g id="AtomSoundSimpleのコピー_7_00000038374090829737439470000004814960500233504413_">
	<path class="st0" d="M117.04,172.93c-0.48,0-0.95-0.01-1.42-0.03c-0.51,0.02-1.01,0.03-1.52,0.03c-10.98,0-21.61-4.15-30.73-11.99
		c-8.15-7.01-14.75-16.66-19.17-28.01c-12.91-0.8-22.87-15.65-22.87-34.46c0-19.18,10.35-34.24,23.63-34.49
		c9.85-23.58,28.49-38.11,49.13-38.11c0.51,0,1.02,0.01,1.52,0.03c0.47-0.02,0.94-0.03,1.42-0.03c15.48,0,30.05,9.54,39.96,26.18
		c8.47,13.21,13.13,30.03,13.13,47.35s-4.66,34.14-13.13,47.35C147.08,163.39,132.52,172.93,117.04,172.93z"/>
	<path class="st0" d="M166.61,99.4c0-17.37-4.75-33.27-12.6-45.51c-8.92-15.01-22.17-24.52-36.97-24.52c-0.47,0-0.95,0.01-1.42,0.03
		c-0.51-0.02-1.02-0.03-1.53-0.03c-20.43,0-38.13,15.55-46.81,38.26c-0.65-0.1-1.32-0.15-1.99-0.15
		c-11.29,0-20.45,13.87-20.45,30.98c0,17.11,9.16,30.98,20.45,30.98c0.45,0,0.89-0.03,1.33-0.07c8.42,23.67,26.51,40.04,47.47,40.04
		c0.51,0,1.02-0.01,1.53-0.03c0.47,0.02,0.94,0.03,1.42,0.03c14.8,0,28.05-9.51,36.97-24.52
		C161.86,132.66,166.61,116.77,166.61,99.4z"/>
	<linearGradient id="SVGID_1_" gradientUnits="userSpaceOnUse" x1="46.9165" y1="98.4681" x2="80.9064" y2="98.4681">
		<stop  offset="0.2036" style="stop-color:#595757"/>
		<stop  offset="0.5434" style="stop-color:#A6A6A7"/>
	</linearGradient>
	<ellipse class="st1" cx="65.29" cy="98.47" rx="20.45" ry="30.98"/>
	<ellipse class="st2" cx="69.32" cy="97.85" rx="15.18" ry="27.27"/>
	<ellipse class="st0" cx="70.56" cy="98.16" rx="13.94" ry="24.48"/>
	<ellipse class="st0" cx="114.09" cy="99.4" rx="52.52" ry="70.02"/>
	<ellipse class="st3" cx="117.04" cy="99.4" rx="48.64" ry="70.02"/>
	
		<linearGradient id="SVGID_00000035496436590394999430000012825326952375798970_" gradientUnits="userSpaceOnUse" x1="73.3487" y1="98.8588" x2="161.342" y2="98.8588">
		<stop  offset="0" style="stop-color:#33302F"/>
		<stop  offset="0.2066" style="stop-color:#3E3939"/>
		<stop  offset="0.4257" style="stop-color:#4B4847"/>
		<stop  offset="0.6506" style="stop-color:#615F5F"/>
		<stop  offset="0.878" style="stop-color:#7C7C7C"/>
		<stop  offset="1" style="stop-color:#8D8D8E"/>
	</linearGradient>
	
		<ellipse style="fill:url(#SVGID_00000035496436590394999430000012825326952375798970_);" cx="117.35" cy="98.86" rx="44" ry="64.84"/>
	
		<linearGradient id="SVGID_00000054980465243739243640000003332768323004343461_" gradientUnits="userSpaceOnUse" x1="78.5909" y1="98.1582" x2="104.6171" y2="98.1582">
		<stop  offset="0" style="stop-color:#5C5A5A"/>
		<stop  offset="0.1204" style="stop-color:#626161"/>
		<stop  offset="0.2905" style="stop-color:#747373"/>
		<stop  offset="0.4902" style="stop-color:#8F8F8F"/>
		<stop  offset="0.7123" style="stop-color:#B3B4B4"/>
		<stop  offset="0.9503" style="stop-color:#DDDDDE"/>
		<stop  offset="1" style="stop-color:#E6E6E6"/>
	</linearGradient>
	
		<ellipse style="fill:url(#SVGID_00000054980465243739243640000003332768323004343461_);" cx="91.32" cy="98.16" rx="13.01" ry="17.66"/>
</g>
<g id="AtomSoundSimpleのコピー_7">
	<path class="st0" d="M93.04,259.93c-0.48,0-0.95-0.01-1.42-0.03c-0.51,0.02-1.01,0.03-1.52,0.03c-10.98,0-21.61-4.15-30.73-11.99
		c-8.15-7.01-14.75-16.66-19.17-28.01c-12.91-0.8-22.87-15.65-22.87-34.46c0-19.18,10.35-34.24,23.63-34.49
		c9.85-23.58,28.49-38.11,49.13-38.11c0.51,0,1.02,0.01,1.52,0.03c0.47-0.02,0.94-0.03,1.42-0.03c15.48,0,30.05,9.54,39.96,26.18
		c8.47,13.21,13.13,30.03,13.13,47.35s-4.66,34.14-13.13,47.35C123.08,250.39,108.52,259.93,93.04,259.93z"/>
	<path class="st0" d="M142.61,186.4c0-17.37-4.75-33.27-12.6-45.51c-8.92-15.01-22.17-24.52-36.97-24.52
		c-0.47,0-0.95,0.01-1.42,0.03c-0.51-0.02-1.02-0.03-1.53-0.03c-20.43,0-38.13,15.55-46.81,38.26c-0.65-0.1-1.32-0.15-1.99-0.15
		c-11.29,0-20.45,13.87-20.45,30.98c0,17.11,9.16,30.98,20.45,30.98c0.45,0,0.89-0.03,1.33-0.07c8.42,23.67,26.51,40.04,47.47,40.04
		c0.51,0,1.02-0.01,1.53-0.03c0.47,0.02,0.94,0.03,1.42,0.03c14.8,0,28.05-9.51,36.97-24.52
		C137.86,219.66,142.61,203.77,142.61,186.4z"/>
	
		<linearGradient id="SVGID_00000147929118130697647820000015613866097982158986_" gradientUnits="userSpaceOnUse" x1="22.9164" y1="185.4681" x2="56.9064" y2="185.4681">
		<stop  offset="0.2036" style="stop-color:#595757"/>
		<stop  offset="0.5434" style="stop-color:#A6A6A7"/>
	</linearGradient>
	
		<ellipse style="fill:url(#SVGID_00000147929118130697647820000015613866097982158986_);" cx="41.29" cy="185.47" rx="20.45" ry="30.98"/>
	<ellipse class="st2" cx="45.32" cy="184.85" rx="15.18" ry="27.27"/>
	<ellipse class="st0" cx="46.56" cy="185.16" rx="13.94" ry="24.48"/>
	<ellipse class="st0" cx="90.09" cy="186.4" rx="52.52" ry="70.02"/>
	<ellipse class="st3" cx="93.04" cy="186.4" rx="48.64" ry="70.02"/>
	
		<linearGradient id="SVGID_00000177472713920214458270000004845144701749724078_" gradientUnits="userSpaceOnUse" x1="49.3487" y1="185.8588" x2="137.342" y2="185.8588">
		<stop  offset="0" style="stop-color:#33302F"/>
		<stop  offset="0.2066" style="stop-color:#3E3939"/>
		<stop  offset="0.4257" style="stop-color:#4B4847"/>
		<stop  offset="0.6506" style="stop-color:#615F5F"/>
		<stop  offset="0.878" style="stop-color:#7C7C7C"/>
		<stop  offset="1" style="stop-color:#8D8D8E"/>
	</linearGradient>
	
		<ellipse style="fill:url(#SVGID_00000177472713920214458270000004845144701749724078_);" cx="93.35" cy="185.86" rx="44" ry="64.84"/>
	
		<linearGradient id="SVGID_00000016793224860959621930000000223400345783259282_" gradientUnits="userSpaceOnUse" x1="54.5909" y1="185.1582" x2="80.6171" y2="185.1582">
		<stop  offset="0" style="stop-color:#5C5A5A"/>
		<stop  offset="0.1204" style="stop-color:#626161"/>
		<stop  offset="0.2905" style="stop-color:#747373"/>
		<stop  offset="0.4902" style="stop-color:#8F8F8F"/>
		<stop  offset="0.7123" style="stop-color:#B3B4B4"/>
		<stop  offset="0.9503" style="stop-color:#DDDDDE"/>
		<stop  offset="1" style="stop-color:#E6E6E6"/>
	</linearGradient>
	
		<ellipse style="fill:url(#SVGID_00000016793224860959621930000000223400345783259282_);" cx="67.32" cy="185.16" rx="13.01" ry="17.66"/>
</g>
<g id="レイヤー_7のコピー_2">
	<path class="st0" d="M163,254.83c-0.25,0-0.51-0.03-0.77-0.11c-1.4-0.39-2.27-1.78-2.03-3.21l13.6-79.32l-25.18,61.87
		c-0.44,1.09-1.5,1.77-2.62,1.77c-0.23,0-0.46-0.03-0.69-0.08c-1.37-0.34-2.28-1.64-2.13-3.04l5.5-52.64l-8.18,15.27
		c-0.49,0.92-1.46,1.5-2.5,1.5c-0.04,0-44.13-2-44.13-2c-1.5-0.07-2.69-1.29-2.71-2.79c-0.02-1.5,1.14-2.76,2.63-2.86l40.45-2.89
		l22.34-41.14c0.51-0.93,1.47-1.48,2.49-1.48c0.27,0,0.55,0.04,0.82,0.12c1.29,0.39,2.12,1.63,2,2.97l-3.36,36.71l15.03-36.61
		c-0.5,0.92-1.46,1.48-2.49,1.48c-0.24,0-0.48-0.03-0.72-0.09c-1.36-0.35-2.25-1.65-2.1-3.05l5.44-50.73l-7.23,12.91
		c-0.5,0.9-1.45,1.45-2.47,1.45c-0.04,0-0.09,0-0.13,0l-43-2c-1.5-0.07-2.68-1.29-2.7-2.79c-0.02-1.5,1.13-2.75,2.62-2.87
		l38.48-2.89l23.26-41.67c0.51-0.92,1.47-1.45,2.48-1.45c0.28,0,0.56,0.04,0.84,0.13c1.28,0.4,2.11,1.64,1.98,2.97l-3.39,36.65
		l29.98-68.06c0.46-1.05,1.5-1.69,2.59-1.69c0.27,0,0.55,0.04,0.82,0.12c1.37,0.42,2.22,1.79,1.97,3.21l-13.37,75.51l13.02-27.23
		c0.48-1,1.48-1.61,2.56-1.61c0.18,0,0.37,0.02,0.55,0.05c1.27,0.25,2.21,1.33,2.28,2.63l2.87,53.57l38.58,3.76
		c1.48,0.14,2.59,1.41,2.56,2.89s-1.21,2.69-2.7,2.76l-39.29,1.92l-27.28,58.45c-0.47,1.01-1.48,1.64-2.57,1.64
		c-0.19,0-0.38-0.02-0.57-0.06c-1.29-0.26-2.22-1.38-2.26-2.69l-0.56-17.4l-27.97,70.35C165.2,254.15,164.14,254.83,163,254.83z
		 M182.54,183.31l7.88-19.86c-0.43,0.25-0.92,0.38-1.42,0.38c-0.27,0-0.55-0.04-0.83-0.12c-0.92-0.28-1.61-1-1.88-1.87
		L182.54,183.31z M200,144.17c0.16,0,0.33,0.01,0.49,0.04c1.32,0.23,2.3,1.36,2.34,2.71l0.62,21.24l13.68-31.67l-1.38-27.66
		l-16.02,35.35C199.82,144.17,199.91,144.17,200,144.17z M193,104.17c0.26,0,0.53,0.04,0.79,0.11c0.73,0.21,1.32,0.69,1.67,1.31
		l2.78-16.52l-6.58,15.43C192.06,104.28,192.53,104.17,193,104.17z"/>
	<polygon class="st9" points="121,104 161,101 185,58 180,112 217,28 200,124 222,78 225,134 266,138 225,140 197,200 196,169 
		163,252 181,147 146,233 153,166 138,194 94,192 136,189 159.09,146.5 154,202 193,107 175,210 200,147 201,181 220,137 218,97 
		189,161 205,66 171.09,145.5 178,81 164,106 	"/>
</g>
<path class="st0" d="M203.58,262.65c-3.6,0-6.55-2.82-6.72-6.42l-0.44-9.61l-3.31-1.37l-7.11,6.48c-1.25,1.13-2.86,1.75-4.53,1.75
	c-1.8,0-3.49-0.7-4.76-1.97l-8.88-8.88c-2.55-2.55-2.64-6.63-0.21-9.29l1.86-2.04c0.29-0.61,0.66-1.18,1.11-1.67l3.38-3.71l-1.24-3
	l-9.61-0.44c-3.6-0.16-6.42-3.11-6.42-6.72V203.2c0-2.46,1.31-4.62,3.29-5.79c0.84-2.6,3.22-4.51,6.1-4.64l7.72-0.36l-6.2-6.8
	c-2.43-2.66-2.33-6.74,0.22-9.29l1.5-1.5c0.33-0.82,0.83-1.57,1.47-2.21l8.87-8.88c1.27-1.27,2.96-1.97,4.76-1.97
	c1.68,0,3.29,0.62,4.54,1.76l7.11,6.48l0.46-0.19l0.33-7.08c0.11-2.35,1.4-4.36,3.29-5.48c0.88-2.71,3.42-4.65,6.4-4.65h12.57
	c3.6,0,6.55,2.82,6.72,6.42l0.45,9.61l3.31,1.37l7.11-6.48c1.24-1.13,2.85-1.76,4.53-1.76c1.79,0,3.48,0.7,4.75,1.96l8.89,8.89
	c2.54,2.55,2.64,6.62,0.22,9.28l-1.87,2.05c-0.28,0.61-0.65,1.17-1.1,1.66l-3.39,3.72l1.25,3l9.61,0.44
	c3.59,0.16,6.41,3.11,6.41,6.72v12.57c0,2.46-1.31,4.62-3.29,5.79c-0.84,2.6-3.22,4.51-6.09,4.64l-7.73,0.36l6.2,6.8
	c2.42,2.67,2.32,6.75-0.21,9.29l-1.51,1.51c-0.33,0.82-0.82,1.56-1.46,2.2l-8.88,8.88c-1.27,1.27-2.96,1.97-4.76,1.97c0,0,0,0,0,0
	c-1.68,0-3.29-0.62-4.53-1.75l-7.11-6.49l-0.46,0.19l-0.33,7.08c-0.11,2.35-1.4,4.36-3.29,5.48c-0.88,2.71-3.41,4.65-6.4,4.65
	H203.58z M199.55,197.36c-1.4,2.41-2.13,5.14-2.13,7.94c0,8.76,7.12,15.88,15.88,15.88c4.02,0,7.83-1.5,10.78-4.22
	c1.4-2.41,2.13-5.15,2.13-7.95c0-8.76-7.12-15.88-15.88-15.88C206.3,193.13,202.49,194.63,199.55,197.36z"/>
<linearGradient id="SVGID_00000001640061083945218850000006255234122083329958_" gradientUnits="userSpaceOnUse" x1="160.8981" y1="207.6229" x2="261.7859" y2="207.6229">
	<stop  offset="0.1998" style="stop-color:#727171"/>
	<stop  offset="1" style="stop-color:#9FA0A0"/>
</linearGradient>
<path style="fill:url(#SVGID_00000001640061083945218850000006255234122083329958_);" d="M259.39,196.97l-10.68-0.49
	c-0.98-0.04-1.84-0.65-2.21-1.55l-2.2-5.3c-0.21-0.51-0.24-1.06-0.11-1.57l4.81-5.28c0.29-0.32,0.47-0.69,0.57-1.07l2.4-2.64
	c0.9-0.99,0.87-2.53-0.08-3.48l-8.88-8.88c-0.95-0.95-2.49-0.99-3.48-0.08l-7.9,7.2c-0.72,0.66-1.76,0.84-2.66,0.47l-5.3-2.2
	c-0.9-0.37-1.5-1.23-1.55-2.21l-0.5-10.68c-0.06-1.34-1.17-2.4-2.51-2.4h-12.57c-1.34,0-2.45,1.06-2.52,2.4l-0.06,1.31h-0.39
	c-1.34,0-2.45,1.06-2.52,2.4l-0.45,9.75l-3.92,1.63c-0.91,0.38-1.94,0.19-2.66-0.47l-7.9-7.2c-0.99-0.91-2.53-0.87-3.48,0.08
	l-8.88,8.88c-0.41,0.41-0.63,0.92-0.71,1.45l-2.26,2.26c-0.95,0.95-0.99,2.49-0.08,3.48l7.2,7.9c0.66,0.72,0.84,1.76,0.46,2.66
	l-1.29,3.12c-0.05,0-0.1,0.01-0.14,0.02l-10.68,0.49c-1.34,0.06-2.4,1.17-2.4,2.51v1.17l-0.57,0.03c-1.34,0.06-2.4,1.17-2.4,2.51
	v12.57c0,1.34,1.06,2.45,2.4,2.51l10.68,0.49c0.98,0.04,1.84,0.65,2.21,1.55l2.19,5.3c0.21,0.51,0.24,1.06,0.11,1.57l-4.81,5.28
	c-0.29,0.32-0.47,0.69-0.57,1.08l-2.4,2.63c-0.91,1-0.87,2.53,0.08,3.48l8.89,8.88c0.95,0.95,2.48,0.98,3.48,0.08l7.9-7.21
	c0.72-0.66,1.76-0.84,2.66-0.47l5.3,2.2c0.9,0.37,1.5,1.24,1.55,2.21l0.49,10.68c0.06,1.34,1.17,2.4,2.52,2.4h12.57
	c1.34,0,2.45-1.06,2.51-2.4l0.06-1.31h0.4c1.34,0,2.45-1.06,2.51-2.4l0.45-9.75l3.92-1.62c0.9-0.37,1.94-0.19,2.66,0.47l7.9,7.21
	c0.99,0.9,2.53,0.87,3.48-0.08l8.88-8.88c0.4-0.4,0.63-0.92,0.7-1.44l2.27-2.27c0.95-0.95,0.98-2.48,0.08-3.48l-7.2-7.9
	c-0.66-0.72-0.84-1.76-0.47-2.66l1.3-3.12c0.05,0,0.1-0.01,0.14-0.02l10.68-0.49c1.34-0.06,2.4-1.17,2.4-2.51v-1.17l0.57-0.03
	c1.34-0.06,2.4-1.17,2.4-2.51v-12.57C261.79,198.14,260.73,197.03,259.39,196.97z M210.33,188.92c11.09,0,20.08,8.99,20.08,20.09
	c0,3.89-1.11,7.52-3.02,10.6c-3.63,3.57-8.6,5.78-14.09,5.78c-11.09,0-20.09-8.99-20.09-20.09c0-3.89,1.11-7.52,3.02-10.6
	C199.86,191.13,204.84,188.92,210.33,188.92z"/>
<g>
	<path class="st11" d="M256.42,200.68l-10.68-0.49c-0.98-0.04-1.84-0.65-2.21-1.55l-2.2-5.3c-0.37-0.9-0.19-1.94,0.47-2.66l7.2-7.9
		c0.9-0.99,0.87-2.53-0.08-3.48l-8.88-8.88c-0.95-0.95-2.49-0.99-3.48-0.08l-7.9,7.2c-0.72,0.66-1.76,0.84-2.66,0.47l-5.3-2.2
		c-0.9-0.37-1.5-1.23-1.55-2.21l-0.5-10.68c-0.06-1.34-1.17-2.4-2.51-2.4h-12.57c-1.34,0-2.45,1.06-2.52,2.4l-0.49,10.68
		c-0.04,0.98-0.65,1.84-1.55,2.21l-5.3,2.2c-0.91,0.38-1.94,0.19-2.66-0.47l-7.9-7.2c-0.99-0.91-2.53-0.87-3.48,0.08l-8.88,8.88
		c-0.95,0.95-0.99,2.49-0.08,3.48l7.2,7.9c0.66,0.72,0.84,1.76,0.46,2.66l-2.19,5.3c-0.37,0.9-1.23,1.51-2.21,1.55l-10.68,0.49
		c-1.34,0.06-2.4,1.17-2.4,2.51v12.57c0,1.34,1.06,2.45,2.4,2.51l10.68,0.49c0.98,0.04,1.84,0.65,2.21,1.55l2.19,5.3
		c0.37,0.9,0.2,1.94-0.46,2.66l-7.2,7.9c-0.91,1-0.87,2.53,0.08,3.48l8.89,8.88c0.95,0.95,2.48,0.98,3.48,0.08l7.9-7.21
		c0.72-0.66,1.76-0.84,2.66-0.47l5.3,2.2c0.9,0.37,1.5,1.24,1.55,2.21l0.49,10.68c0.06,1.34,1.17,2.4,2.52,2.4h12.57
		c1.34,0,2.45-1.06,2.51-2.4l0.5-10.68c0.04-0.98,0.65-1.84,1.55-2.21l5.3-2.2c0.9-0.37,1.94-0.19,2.66,0.47l7.9,7.21
		c0.99,0.9,2.53,0.87,3.48-0.08l8.88-8.88c0.95-0.95,0.98-2.48,0.08-3.48l-7.2-7.9c-0.66-0.72-0.84-1.76-0.47-2.66l2.2-5.3
		c0.37-0.9,1.23-1.51,2.21-1.55l10.68-0.49c1.34-0.06,2.4-1.17,2.4-2.51V203.2C258.82,201.85,257.76,200.74,256.42,200.68z
		 M210.33,229.1c-11.09,0-20.09-8.99-20.09-20.09c0-11.09,9-20.09,20.09-20.09s20.08,8.99,20.08,20.09
		C230.41,220.1,221.42,229.1,210.33,229.1z"/>
</g>
<g>
	
		<linearGradient id="SVGID_00000103961095844683920280000004374739257604885427_" gradientUnits="userSpaceOnUse" x1="163.867" y1="205.7674" x2="261.786" y2="205.7674">
		<stop  offset="0.1998" style="stop-color:#9FA0A0"/>
		<stop  offset="1" style="stop-color:#EFEFEF"/>
	</linearGradient>
	<path style="fill:url(#SVGID_00000103961095844683920280000004374739257604885427_);" d="M259.39,196.97l-10.68-0.49
		c-0.98-0.04-1.84-0.65-2.21-1.55l-2.2-5.3c-0.37-0.9-0.19-1.94,0.47-2.66l7.2-7.9c0.9-0.99,0.87-2.53-0.08-3.48l-8.88-8.88
		c-0.95-0.95-2.49-0.99-3.48-0.08l-7.9,7.2c-0.72,0.66-1.76,0.84-2.66,0.47l-5.3-2.2c-0.9-0.37-1.5-1.23-1.55-2.21l-0.5-10.68
		c-0.06-1.34-1.17-2.4-2.51-2.4h-12.57c-1.34,0-2.45,1.06-2.52,2.4l-0.49,10.68c-0.04,0.98-0.65,1.84-1.55,2.21l-5.3,2.2
		c-0.91,0.38-1.94,0.19-2.66-0.47l-7.9-7.2c-0.99-0.91-2.53-0.87-3.48,0.08l-8.88,8.88c-0.95,0.95-0.99,2.49-0.08,3.48l7.2,7.9
		c0.66,0.72,0.84,1.76,0.46,2.66l-2.19,5.3c-0.37,0.9-1.23,1.51-2.21,1.55l-10.68,0.49c-1.34,0.06-2.4,1.17-2.4,2.51v12.57
		c0,1.34,1.06,2.45,2.4,2.51l10.68,0.49c0.98,0.04,1.84,0.65,2.21,1.55l2.19,5.3c0.37,0.9,0.2,1.94-0.46,2.66l-7.2,7.9
		c-0.91,1-0.87,2.53,0.08,3.48l8.89,8.88c0.95,0.95,2.48,0.98,3.48,0.08l7.9-7.21c0.72-0.66,1.76-0.84,2.66-0.47l5.3,2.2
		c0.9,0.37,1.5,1.24,1.55,2.21l0.49,10.68c0.06,1.34,1.17,2.4,2.52,2.4h12.57c1.34,0,2.45-1.06,2.51-2.4l0.5-10.68
		c0.04-0.98,0.65-1.84,1.55-2.21l5.3-2.2c0.9-0.37,1.94-0.19,2.66,0.47l7.9,7.21c0.99,0.9,2.53,0.87,3.48-0.08l8.88-8.88
		c0.95-0.95,0.98-2.48,0.08-3.48l-7.2-7.9c-0.66-0.72-0.84-1.76-0.47-2.66l2.2-5.3c0.37-0.9,1.23-1.51,2.21-1.55l10.68-0.49
		c1.34-0.06,2.4-1.17,2.4-2.51v-12.57C261.79,198.14,260.73,197.03,259.39,196.97z M213.3,225.39c-11.09,0-20.09-8.99-20.09-20.09
		c0-11.09,9-20.09,20.09-20.09s20.08,8.99,20.08,20.09C233.38,216.39,224.39,225.39,213.3,225.39z"/>
</g>
</svg>
