<?xml version="1.0" encoding="UTF-8"?>
<svg id="AtomSoundSimple" xmlns="http://www.w3.org/2000/svg" xmlns:xlink="http://www.w3.org/1999/xlink" viewBox="0 0 288.24 273.17">
  <defs>
    <style>
      .cls-1 {
        fill: url(#_名称未設定グラデーション_4);
      }

      .cls-2 {
        fill: #dcdddd;
      }

      .cls-3 {
        fill: url(#_名称未設定グラデーション_6);
      }

      .cls-4 {
        fill: #3e3a39;
      }

      .cls-5 {
        fill: url(#_名称未設定グラデーション_11);
      }

      .cls-6 {
        fill: #b5b5b6;
      }
    </style>
    <linearGradient id="_名称未設定グラデーション_11" data-name="名称未設定グラデーション 11" x1="43.12" y1="134.76" x2="99.06" y2="134.76" gradientUnits="userSpaceOnUse">
      <stop offset=".2" stop-color="#595757"/>
      <stop offset=".54" stop-color="#a6a6a7"/>
    </linearGradient>
    <linearGradient id="_名称未設定グラデーション_4" data-name="名称未設定グラデーション 4" x1="86.62" y1="135.4" x2="231.43" y2="135.4" gradientUnits="userSpaceOnUse">
      <stop offset="0" stop-color="#393332"/>
      <stop offset=".2" stop-color="#3c3736"/>
      <stop offset=".41" stop-color="#484343"/>
      <stop offset=".63" stop-color="#5b5858"/>
      <stop offset=".85" stop-color="#767575"/>
      <stop offset="1" stop-color="#8d8d8e"/>
    </linearGradient>
    <linearGradient id="_名称未設定グラデーション_6" data-name="名称未設定グラデーション 6" x1="95.25" y1="134.25" x2="138.08" y2="134.25" gradientUnits="userSpaceOnUse">
      <stop offset="0" stop-color="#5c5a5a"/>
      <stop offset=".13" stop-color="#626060"/>
      <stop offset=".32" stop-color="#747373"/>
      <stop offset=".54" stop-color="#929191"/>
      <stop offset=".79" stop-color="#bbb"/>
      <stop offset="1" stop-color="#e6e6e6"/>
    </linearGradient>
  </defs>
  <path class="cls-4" d="m158.52,257.31c-.78,0-1.56-.02-2.34-.05-.83.03-1.67.05-2.51.05-18.07,0-35.56-6.83-50.57-19.74-13.41-11.54-24.27-27.42-31.55-46.1-21.24-1.31-37.63-25.75-37.63-56.72s17.04-56.36,38.88-56.77c16.2-38.8,46.88-62.72,80.86-62.72.84,0,1.67.02,2.51.05.78-.03,1.55-.05,2.34-.05,25.48,0,49.45,15.71,65.76,43.09,13.93,21.75,21.61,49.42,21.61,77.93s-7.67,56.18-21.61,77.93c-16.31,27.39-40.28,43.09-65.76,43.09Z"/>
  <path class="cls-4" d="m240.1,136.29c0-28.59-7.81-54.75-20.74-74.89-14.68-24.69-36.49-40.35-60.84-40.35-.78,0-1.56.02-2.33.05-.84-.03-1.67-.05-2.51-.05-33.62,0-62.75,25.59-77.04,62.96-1.08-.16-2.16-.24-3.27-.24-18.59,0-33.65,22.83-33.65,50.99s15.07,50.99,33.65,50.99c.74,0,1.46-.05,2.19-.12,13.86,38.96,43.63,65.9,78.12,65.9.84,0,1.68-.02,2.51-.05.77.03,1.55.05,2.33.05,24.35,0,46.16-15.65,60.84-40.35,12.93-20.14,20.74-46.3,20.74-74.89Z"/>
  <ellipse class="cls-5" cx="73.36" cy="134.76" rx="33.65" ry="50.99"/>
  <ellipse class="cls-6" cx="79.99" cy="133.74" rx="24.99" ry="44.87"/>
  <ellipse class="cls-4" cx="82.03" cy="134.25" rx="22.95" ry="40.28"/>
  <ellipse class="cls-4" cx="153.67" cy="136.29" rx="86.43" ry="115.24"/>
  <ellipse class="cls-2" cx="158.52" cy="136.29" rx="80.06" ry="115.24"/>
  <ellipse class="cls-1" cx="159.03" cy="135.4" rx="72.41" ry="106.7"/>
  <ellipse class="cls-3" cx="116.19" cy="134.25" rx="21.42" ry="29.06"/>
</svg>