<?xml version="1.0" encoding="UTF-8"?>
<svg id="AtomConfig" xmlns="http://www.w3.org/2000/svg" xmlns:xlink="http://www.w3.org/1999/xlink" viewBox="0 0 288.24 273.17">
  <defs>
    <style>
      .cls-1 {
        fill: url(#_名称未設定グラデーション_4);
      }

      .cls-2 {
        fill: #dcdddd;
      }

      .cls-3 {
        fill: url(#_名称未設定グラデーション_6);
      }

      .cls-4 {
        fill: #3e3a39;
      }

      .cls-5 {
        fill: url(#_名称未設定グラデーション_16);
      }

      .cls-6 {
        fill: url(#_名称未設定グラデーション_11);
      }

      .cls-7 {
        fill: #b5b5b6;
      }

      .cls-8 {
        fill: #727171;
      }

      .cls-9 {
        fill: url(#_名称未設定グラデーション_17);
      }
    </style>
    <linearGradient id="_名称未設定グラデーション_11" data-name="名称未設定グラデーション 11" x1="15.12" y1="131.46" x2="64.99" y2="131.46" gradientUnits="userSpaceOnUse">
      <stop offset=".2" stop-color="#595757"/>
      <stop offset=".54" stop-color="#a6a6a7"/>
    </linearGradient>
    <linearGradient id="_名称未設定グラデーション_4" data-name="名称未設定グラデーション 4" x1="53.9" y1="132.03" x2="183.01" y2="132.03" gradientUnits="userSpaceOnUse">
      <stop offset="0" stop-color="#393332"/>
      <stop offset=".2" stop-color="#3c3736"/>
      <stop offset=".41" stop-color="#484343"/>
      <stop offset=".63" stop-color="#5b5858"/>
      <stop offset=".85" stop-color="#767575"/>
      <stop offset="1" stop-color="#8d8d8e"/>
    </linearGradient>
    <linearGradient id="_名称未設定グラデーション_6" data-name="名称未設定グラデーション 6" x1="61.6" y1="131.01" x2="99.78" y2="131.01" gradientUnits="userSpaceOnUse">
      <stop offset="0" stop-color="#5c5a5a"/>
      <stop offset=".13" stop-color="#626060"/>
      <stop offset=".32" stop-color="#747373"/>
      <stop offset=".54" stop-color="#929191"/>
      <stop offset=".79" stop-color="#bbb"/>
      <stop offset="1" stop-color="#e6e6e6"/>
    </linearGradient>
    <linearGradient id="_名称未設定グラデーション_16" data-name="名称未設定グラデーション 16" x1="127.93" y1="172.35" x2="263.86" y2="172.35" gradientUnits="userSpaceOnUse">
      <stop offset=".2" stop-color="#727171"/>
      <stop offset="1" stop-color="#9fa0a0"/>
    </linearGradient>
    <linearGradient id="_名称未設定グラデーション_17" data-name="名称未設定グラデーション 17" x1="131.93" y1="169.85" x2="263.86" y2="169.85" gradientUnits="userSpaceOnUse">
      <stop offset=".2" stop-color="#9fa0a0"/>
      <stop offset="1" stop-color="#efefef"/>
    </linearGradient>
  </defs>
  <g id="AtomSoundSimpleのコピー_6" data-name="AtomSoundSimpleのコピー 6">
    <path class="cls-4" d="m118,240.72c-.7,0-1.39-.02-2.08-.04-.74.03-1.49.04-2.23.04-16.11,0-31.7-6.08-45.08-17.6-11.96-10.29-21.64-24.45-28.13-41.1-18.94-1.17-33.55-22.96-33.55-50.56s15.19-50.24,34.67-50.61c14.45-34.6,41.8-55.92,72.09-55.92.75,0,1.49.02,2.23.04.69-.03,1.39-.04,2.08-.04,22.72,0,44.08,14,58.63,38.42,12.42,19.39,19.26,44.06,19.26,69.48s-6.84,50.09-19.26,69.48c-14.54,24.42-35.91,38.42-58.63,38.42Z"/>
    <path class="cls-4" d="m190.74,132.83c0-25.49-6.97-48.81-18.49-66.77-13.09-22.02-32.53-35.97-54.24-35.97-.69,0-1.39.02-2.08.05-.74-.03-1.49-.05-2.24-.05-29.97,0-55.95,22.82-68.69,56.13-.96-.14-1.93-.22-2.91-.22-16.57,0-30,20.35-30,45.46s13.43,45.46,30,45.46c.66,0,1.3-.04,1.95-.11,12.36,34.73,38.9,58.75,69.65,58.75.75,0,1.5-.02,2.24-.05.69.03,1.38.05,2.08.05,21.71,0,41.15-13.96,54.24-35.97,11.53-17.96,18.49-41.28,18.49-66.77Z"/>
    <ellipse class="cls-6" cx="42.08" cy="131.46" rx="30" ry="45.46"/>
    <ellipse class="cls-7" cx="47.99" cy="130.55" rx="22.28" ry="40"/>
    <ellipse class="cls-4" cx="49.81" cy="131.01" rx="20.46" ry="35.91"/>
    <ellipse class="cls-4" cx="113.68" cy="132.83" rx="77.05" ry="102.74"/>
    <ellipse class="cls-2" cx="118" cy="132.83" rx="71.37" ry="102.74"/>
    <ellipse class="cls-1" cx="118.46" cy="132.03" rx="64.55" ry="95.13"/>
    <ellipse class="cls-3" cx="80.27" cy="131.01" rx="19.09" ry="25.91"/>
  </g>
  <path class="cls-4" d="m185.43,246.49c-4.85,0-8.83-3.8-9.05-8.65l-.6-12.95-4.46-1.85-9.58,8.73c-1.69,1.53-3.85,2.36-6.11,2.36-2.42,0-4.7-.94-6.41-2.66l-11.97-11.96c-3.43-3.44-3.56-8.93-.29-12.52l2.51-2.75c.38-.83.89-1.59,1.49-2.25l4.56-5-1.67-4.04-12.94-.6c-4.85-.22-8.64-4.2-8.64-9.05v-16.93c0-3.32,1.77-6.22,4.44-7.8,1.13-3.5,4.34-6.08,8.21-6.25l10.41-.48-8.35-9.16c-3.27-3.59-3.14-9.09.29-12.52l2.02-2.02c.45-1.11,1.11-2.12,1.98-2.98l11.96-11.96c1.72-1.71,3.99-2.66,6.41-2.66,2.27,0,4.44.84,6.11,2.37l9.58,8.73.62-.26.44-9.54c.15-3.16,1.89-5.88,4.43-7.38,1.18-3.65,4.6-6.26,8.62-6.26h16.93c4.85,0,8.82,3.8,9.05,8.64l.6,12.95,4.46,1.85,9.58-8.73c1.67-1.53,3.84-2.37,6.11-2.37,2.42,0,4.69.94,6.4,2.65l11.97,11.98c3.43,3.43,3.55,8.93.29,12.51l-2.52,2.76c-.38.82-.88,1.58-1.48,2.24l-4.57,5.01,1.68,4.04,12.95.6c4.84.22,8.64,4.19,8.64,9.05v16.93c0,3.32-1.77,6.22-4.44,7.8-1.13,3.5-4.33,6.07-8.21,6.25l-10.41.48,8.35,9.16c3.26,3.6,3.13,9.09-.29,12.51l-2.03,2.04c-.45,1.1-1.11,2.11-1.96,2.96l-11.97,11.97c-1.72,1.71-3.99,2.65-6.41,2.65h0c-2.26,0-4.43-.84-6.1-2.36l-9.58-8.74-.62.26-.44,9.54c-.15,3.16-1.89,5.88-4.43,7.38-1.18,3.65-4.6,6.26-8.62,6.26h-16.93Zm-5.43-87.97c-1.88,3.25-2.87,6.93-2.87,10.7,0,11.8,9.6,21.39,21.4,21.39,5.42,0,10.55-2.02,14.52-5.69,1.88-3.25,2.87-6.93,2.87-10.71,0-11.8-9.6-21.4-21.39-21.4-5.42,0-10.56,2.02-14.52,5.69Z"/>
  <path class="cls-5" d="m260.63,158l-14.39-.66c-1.31-.06-2.48-.87-2.98-2.09l-2.97-7.14c-.28-.69-.32-1.43-.15-2.12l6.48-7.12c.39-.42.63-.93.76-1.45l3.24-3.55c1.22-1.34,1.17-3.4-.11-4.69l-11.97-11.97c-1.28-1.28-3.35-1.33-4.69-.11l-10.65,9.71c-.97.89-2.37,1.13-3.59.63l-7.14-2.96c-1.22-.5-2.03-1.66-2.09-2.98l-.67-14.39c-.08-1.81-1.58-3.24-3.39-3.24h-16.93c-1.81,0-3.31,1.43-3.39,3.24l-.08,1.76h-.53c-1.81,0-3.31,1.43-3.39,3.24l-.6,13.14-5.28,2.19c-1.22.51-2.62.26-3.59-.63l-10.65-9.71c-1.34-1.22-3.41-1.18-4.69.11l-11.96,11.97c-.55.55-.85,1.24-.95,1.95l-3.05,3.05c-1.28,1.28-1.33,3.35-.11,4.69l9.71,10.65c.89.97,1.13,2.37.62,3.59l-1.74,4.2c-.07,0-.13.02-.2.02l-14.39.66c-1.81.08-3.24,1.58-3.24,3.39v1.58l-.76.04c-1.81.08-3.24,1.58-3.24,3.39v16.93c0,1.81,1.43,3.31,3.24,3.39l14.39.66c1.32.06,2.48.87,2.98,2.09l2.96,7.14c.28.69.32,1.43.15,2.12l-6.48,7.11c-.39.43-.64.93-.77,1.46l-3.23,3.54c-1.23,1.34-1.18,3.41.1,4.69l11.97,11.97c1.28,1.28,3.34,1.33,4.69.11l10.65-9.71c.97-.89,2.37-1.13,3.59-.63l7.14,2.96c1.22.5,2.03,1.67,2.09,2.98l.66,14.39c.08,1.81,1.58,3.24,3.39,3.24h16.93c1.81,0,3.3-1.43,3.39-3.24l.08-1.76h.53c1.81,0,3.3-1.43,3.39-3.24l.61-13.14,5.28-2.19c1.22-.5,2.61-.26,3.59.63l10.65,9.71c1.34,1.22,3.41,1.17,4.69-.11l11.97-11.97c.54-.55.85-1.23.95-1.95l3.05-3.05c1.28-1.28,1.32-3.35.11-4.69l-9.71-10.65c-.89-.97-1.14-2.37-.63-3.59l1.75-4.2c.07,0,.13-.02.19-.02l14.39-.66c1.81-.08,3.23-1.58,3.23-3.39v-1.58l.77-.04c1.81-.08,3.23-1.58,3.23-3.39v-16.93c0-1.81-1.42-3.31-3.23-3.39Zm-66.1-10.84c14.94,0,27.06,12.12,27.06,27.07,0,5.24-1.5,10.13-4.08,14.28-4.89,4.81-11.59,7.78-18.98,7.78-14.94,0-27.07-12.12-27.07-27.06,0-5.24,1.5-10.13,4.08-14.28,4.89-4.81,11.59-7.79,18.99-7.79Z"/>
  <path class="cls-8" d="m256.63,163l-14.39-.66c-1.31-.06-2.48-.87-2.98-2.09l-2.97-7.14c-.5-1.22-.26-2.61.63-3.59l9.71-10.65c1.22-1.34,1.17-3.4-.11-4.69l-11.97-11.97c-1.28-1.28-3.35-1.33-4.69-.11l-10.65,9.71c-.97.89-2.37,1.13-3.59.63l-7.14-2.96c-1.22-.5-2.03-1.66-2.09-2.98l-.67-14.39c-.08-1.81-1.58-3.24-3.39-3.24h-16.93c-1.81,0-3.31,1.43-3.39,3.24l-.66,14.39c-.06,1.32-.87,2.48-2.09,2.98l-7.14,2.96c-1.22.51-2.62.26-3.59-.63l-10.65-9.71c-1.34-1.22-3.41-1.18-4.69.11l-11.96,11.97c-1.28,1.28-1.33,3.35-.11,4.69l9.71,10.65c.89.97,1.13,2.37.62,3.59l-2.96,7.14c-.5,1.21-1.66,2.03-2.98,2.09l-14.39.66c-1.81.08-3.24,1.58-3.24,3.39v16.93c0,1.81,1.43,3.31,3.24,3.39l14.39.66c1.32.06,2.48.87,2.98,2.09l2.96,7.14c.5,1.22.27,2.61-.62,3.59l-9.71,10.65c-1.23,1.34-1.18,3.41.1,4.69l11.97,11.97c1.28,1.28,3.34,1.33,4.69.11l10.65-9.71c.97-.89,2.37-1.13,3.59-.63l7.14,2.96c1.22.5,2.03,1.67,2.09,2.98l.66,14.39c.08,1.81,1.58,3.24,3.39,3.24h16.93c1.81,0,3.3-1.43,3.39-3.24l.67-14.39c.06-1.32.87-2.48,2.09-2.98l7.14-2.96c1.22-.5,2.61-.26,3.59.63l10.65,9.71c1.34,1.22,3.41,1.17,4.69-.11l11.97-11.97c1.28-1.28,1.32-3.35.11-4.69l-9.71-10.65c-.89-.97-1.14-2.37-.63-3.59l2.97-7.14c.5-1.21,1.66-2.03,2.98-2.09l14.39-.66c1.81-.08,3.23-1.58,3.23-3.39v-16.93c0-1.81-1.42-3.31-3.23-3.39Zm-62.1,38.29c-14.94,0-27.07-12.12-27.07-27.06s12.12-27.07,27.07-27.07,27.06,12.12,27.06,27.07-12.12,27.06-27.06,27.06Z"/>
  <path class="cls-9" d="m260.63,158l-14.39-.66c-1.31-.06-2.48-.87-2.98-2.09l-2.97-7.14c-.5-1.22-.26-2.61.63-3.59l9.71-10.65c1.22-1.34,1.17-3.4-.11-4.69l-11.97-11.97c-1.28-1.28-3.35-1.33-4.69-.11l-10.65,9.71c-.97.89-2.37,1.13-3.59.63l-7.14-2.96c-1.22-.5-2.03-1.66-2.09-2.98l-.67-14.39c-.08-1.81-1.58-3.24-3.39-3.24h-16.93c-1.81,0-3.31,1.43-3.39,3.24l-.66,14.39c-.06,1.32-.87,2.48-2.09,2.98l-7.14,2.96c-1.22.51-2.62.26-3.59-.63l-10.65-9.71c-1.34-1.22-3.41-1.18-4.69.11l-11.96,11.97c-1.28,1.28-1.33,3.35-.11,4.69l9.71,10.65c.89.97,1.13,2.37.62,3.59l-2.96,7.14c-.5,1.21-1.66,2.03-2.98,2.09l-14.39.66c-1.81.08-3.24,1.58-3.24,3.39v16.93c0,1.81,1.43,3.31,3.24,3.39l14.39.66c1.32.06,2.48.87,2.98,2.09l2.96,7.14c.5,1.22.27,2.61-.62,3.59l-9.71,10.65c-1.23,1.34-1.18,3.41.1,4.69l11.97,11.97c1.28,1.28,3.34,1.33,4.69.11l10.65-9.71c.97-.89,2.37-1.13,3.59-.63l7.14,2.96c1.22.5,2.03,1.67,2.09,2.98l.66,14.39c.08,1.81,1.58,3.24,3.39,3.24h16.93c1.81,0,3.3-1.43,3.39-3.24l.67-14.39c.06-1.32.87-2.48,2.09-2.98l7.14-2.96c1.22-.5,2.61-.26,3.59.63l10.65,9.71c1.34,1.22,3.41,1.17,4.69-.11l11.97-11.97c1.28-1.28,1.32-3.35.11-4.69l-9.71-10.65c-.89-.97-1.14-2.37-.63-3.59l2.97-7.14c.5-1.21,1.66-2.03,2.98-2.09l14.39-.66c1.81-.08,3.23-1.58,3.23-3.39v-16.93c0-1.81-1.42-3.31-3.23-3.39Zm-62.1,38.29c-14.94,0-27.07-12.12-27.07-27.06s12.12-27.07,27.07-27.07,27.06,12.12,27.06,27.07-12.12,27.06-27.06,27.06Z"/>
</svg>