<?xml version="1.0" encoding="UTF-8"?>
<svg id="AtomCueSheet" xmlns="http://www.w3.org/2000/svg" xmlns:xlink="http://www.w3.org/1999/xlink" viewBox="0 0 288.24 273.17">
  <defs>
    <style>
      .cls-1 {
        fill: #fff;
      }

      .cls-2 {
        fill: url(#_名称未設定グラデーション_4);
      }

      .cls-3 {
        fill: #dcdddd;
      }

      .cls-4 {
        fill: url(#_名称未設定グラデーション_6);
      }

      .cls-5 {
        fill: #3e3a39;
      }

      .cls-6 {
        fill: #595757;
      }

      .cls-7 {
        fill: url(#_名称未設定グラデーション_11);
      }

      .cls-8 {
        fill: url(#_名称未設定グラデーション_15);
      }

      .cls-9 {
        fill: #efefef;
      }

      .cls-10 {
        fill: url(#_名称未設定グラデーション_14);
      }

      .cls-11 {
        fill: #b5b5b6;
      }

      .cls-12 {
        fill: #727171;
      }
    </style>
    <linearGradient id="_名称未設定グラデーション_14" data-name="名称未設定グラデーション 14" x1="22.42" y1="181.87" x2="215.52" y2="181.87" gradientUnits="userSpaceOnUse">
      <stop offset=".19" stop-color="#595757"/>
      <stop offset="1" stop-color="#9fa0a0"/>
    </linearGradient>
    <linearGradient id="_名称未設定グラデーション_15" data-name="名称未設定グラデーション 15" x1="13.29" y1="101.22" x2="206.01" y2="101.22" gradientUnits="userSpaceOnUse">
      <stop offset=".19" stop-color="#595757"/>
      <stop offset="1" stop-color="#9fa0a0"/>
    </linearGradient>
    <linearGradient id="_名称未設定グラデーション_11" data-name="名称未設定グラデーション 11" x1="87.61" y1="88.29" x2="115.01" y2="88.29" gradientUnits="userSpaceOnUse">
      <stop offset=".2" stop-color="#595757"/>
      <stop offset=".54" stop-color="#a6a6a7"/>
    </linearGradient>
    <linearGradient id="_名称未設定グラデーション_4" data-name="名称未設定グラデーション 4" x1="108.92" y1="88.61" x2="179.86" y2="88.61" gradientUnits="userSpaceOnUse">
      <stop offset="0" stop-color="#393332"/>
      <stop offset=".2" stop-color="#3c3736"/>
      <stop offset=".41" stop-color="#484343"/>
      <stop offset=".63" stop-color="#5b5858"/>
      <stop offset=".85" stop-color="#767575"/>
      <stop offset="1" stop-color="#8d8d8e"/>
    </linearGradient>
    <linearGradient id="_名称未設定グラデーション_6" data-name="名称未設定グラデーション 6" x1="113.15" y1="88.04" x2="134.13" y2="88.04" gradientUnits="userSpaceOnUse">
      <stop offset="0" stop-color="#5c5a5a"/>
      <stop offset=".13" stop-color="#626060"/>
      <stop offset=".32" stop-color="#747373"/>
      <stop offset=".54" stop-color="#929191"/>
      <stop offset=".79" stop-color="#bbb"/>
      <stop offset="1" stop-color="#e6e6e6"/>
    </linearGradient>
  </defs>
  <g id="_レイヤー_13" data-name="レイヤー 13">
    <polygon class="cls-5" points="8.4 133.34 18.36 154.34 18.36 207.01 82.6 249.84 218.6 210.84 218.6 154.34 158.02 116.34 211.38 66.72 200.14 44.77 61.17 77.9 8.4 133.34"/>
  </g>
  <polygon class="cls-10" points="22.42 154.84 22.42 205.48 83.13 245.37 215.52 208.37 215.52 156.37 153.52 118.37 22.42 154.84"/>
  <polygon class="cls-8" points="21.59 150.83 13.29 134.15 65.49 81.61 197.49 51.61 206.01 65.9 152.49 115.61 21.59 150.83"/>
  <g id="_レイヤー_9" data-name="レイヤー 9">
    <polygon class="cls-5" points="37.55 155.12 84.6 185.84 203.6 155.84 152.6 123.84 37.55 155.12"/>
  </g>
  <g id="_レイヤー_11" data-name="レイヤー 11">
    <polygon class="cls-12" points="45.09 156.37 85.38 182.84 149.6 165.84 149.6 128.18 45.09 156.37"/>
    <polygon class="cls-12" points="153.6 164.84 195.74 154.73 153.6 127.84 153.6 164.84"/>
  </g>
  <g id="_レイヤー_10" data-name="レイヤー 10">
    <polygon class="cls-9" points="26.74 153.64 82.6 189.84 211.6 156.84 150.46 119.37 153.98 118.37 215.52 156.14 215.52 208.37 212.6 209.19 212.6 160.84 183.6 167.84 183.6 195.84 113.6 213.84 113.6 186.84 83.13 194.08 83.13 245.37 80.18 243.44 80.59 193.91 22.42 154.84 26.74 153.64"/>
    <polygon class="cls-3" points="14.98 137.23 63.6 86.84 70.15 98.27 20.05 147.24 21.72 150.79 74.6 98.84 64.6 81.84 13.45 133.99 14.98 137.23"/>
  </g>
  <g id="_レイヤー_12" data-name="レイヤー 12">
    <polygon class="cls-3" points="64.6 81.84 197.03 50.31 206.03 65.89 74.6 98.84 72.81 95.8 201.69 63.86 195.91 53.4 66.28 84.7 64.6 81.84"/>
  </g>
  <g id="_レイヤー_14" data-name="レイヤー 14">
    <ellipse class="cls-6" cx="130.63" cy="192.04" rx="4.08" ry="3.18" transform="translate(-99.69 162.14) rotate(-48.38)"/>
    <ellipse class="cls-6" cx="164.52" cy="185.12" rx="13.29" ry="10.39" transform="translate(-81.66 212.19) rotate(-54.65)"/>
    <polygon class="cls-6" points="132.25 200.65 129.49 201.33 129.49 195.14 132.25 194.45 132.25 200.65"/>
    <ellipse class="cls-11" cx="166.15" cy="186.03" rx="7.35" ry="5.67" transform="translate(-76.26 244.77) rotate(-61.85)"/>
  </g>
  <g id="AtomSoundCueのコピー">
    <g id="AtomSoundSimpleのコピー_5" data-name="AtomSoundSimpleのコピー 5">
      <path class="cls-5" d="m144.14,148.33c-.38,0-.76,0-1.15-.02-.41.01-.82.02-1.23.02-8.85,0-17.42-3.34-24.77-9.67-6.57-5.65-11.89-13.43-15.45-22.58-10.41-.64-18.44-12.62-18.44-27.78s8.35-27.61,19.05-27.81c7.94-19.01,22.97-30.73,39.61-30.73.41,0,.82,0,1.23.02.38-.01.76-.02,1.15-.02,12.48,0,24.22,7.69,32.22,21.11,6.83,10.65,10.58,24.21,10.58,38.18s-3.76,27.52-10.58,38.18c-7.99,13.42-19.73,21.11-32.22,21.11Z"/>
      <path class="cls-5" d="m184.11,89.04c0-14.01-3.83-26.82-10.16-36.69-7.19-12.1-17.88-19.77-29.81-19.77-.38,0-.76,0-1.14.03-.41-.02-.82-.03-1.23-.03-16.47,0-30.74,12.54-37.74,30.84-.53-.08-1.06-.12-1.6-.12-9.11,0-16.49,11.18-16.49,24.98s7.38,24.98,16.49,24.98c.36,0,.72-.02,1.07-.06,6.79,19.08,21.37,32.28,38.27,32.28.41,0,.82,0,1.23-.03.38.02.76.03,1.14.03,11.93,0,22.61-7.67,29.81-19.77,6.33-9.87,10.16-22.68,10.16-36.69Z"/>
      <ellipse class="cls-7" cx="102.42" cy="88.29" rx="16.49" ry="24.98"/>
      <ellipse class="cls-11" cx="105.67" cy="87.79" rx="12.24" ry="21.98"/>
      <ellipse class="cls-5" cx="106.67" cy="88.04" rx="11.24" ry="19.73"/>
      <ellipse class="cls-5" cx="141.77" cy="89.04" rx="42.34" ry="56.45"/>
      <ellipse class="cls-3" cx="144.14" cy="89.04" rx="39.22" ry="56.45"/>
      <ellipse class="cls-2" cx="144.39" cy="88.61" rx="35.47" ry="52.27"/>
      <ellipse class="cls-4" cx="123.41" cy="88.04" rx="10.49" ry="14.24"/>
    </g>
    <g id="_レイヤー_5のコピー" data-name="レイヤー 5のコピー">
      <path class="cls-5" d="m209.33,154.84c-1.01,0-1.85-.77-1.95-1.77l-8.19-81.31-8.07,52.2c-.15.96-.97,1.67-1.94,1.67h0c-.97,0-1.79-.7-1.95-1.65l-7.55-45.86-3.9,14.75c-.23.87-1.02,1.47-1.9,1.47-.06,0-.13,0-.19,0l-35.48-3.48c-1.02-.1-1.8-.97-1.78-2,.02-1.03.82-1.87,1.85-1.93l31.25-1.99,9.39-37.56c.22-.88,1.01-1.49,1.91-1.49.02,0,.05,0,.07,0,.93.03,1.71.72,1.87,1.64l6.19,36.11,8.69-63.17c.13-.98.97-1.7,1.95-1.7h.03c1,.01,1.82.77,1.93,1.76l8.01,74.36,6.16-45.2c.13-.96.95-1.69,1.92-1.71.01,0,.02,0,.04,0,.96,0,1.78.69,1.94,1.63l7.84,45.21,3.69-9.42c.3-.76,1.03-1.25,1.84-1.25.05,0,.1,0,.15,0l35.48,2.78c1.03.08,1.82.94,1.82,1.97,0,1.03-.8,1.89-1.83,1.96l-31.84,2.34-8.9,22.84c-.3.76-1.03,1.26-1.84,1.26-.05,0-.11,0-.16,0-.87-.07-1.59-.7-1.77-1.55l-5.79-27-7.02,64.36c-.11,1-.95,1.76-1.96,1.76h0Z"/>
      <polygon class="cls-1" points="171.08 86.79 180.81 47.84 189.16 96.53 199.6 20.71 209.33 111.14 217.68 49.92 226.72 102.09 232.98 86.09 268.46 88.88 235.38 91.31 226.03 115.31 217.68 76.36 209.33 152.87 199.6 56.18 189.16 123.66 180.12 68.7 173.86 92.35 138.38 88.88 171.08 86.79"/>
    </g>
  </g>
</svg>