<?xml version="1.0" encoding="utf-8"?>
<!-- Generator: Adobe Illustrator 28.0.0, SVG Export Plug-In . SVG Version: 6.00 Build 0)  -->
<svg version="1.1" id="headphone" xmlns="http://www.w3.org/2000/svg" xmlns:xlink="http://www.w3.org/1999/xlink" x="0px" y="0px"
	 viewBox="0 0 283.46 283.46" style="enable-background:new 0 0 283.46 283.46;" xml:space="preserve">
<style type="text/css">
	.st0{display:none;}
	.st1{fill:url(#SVGID_1_);}
	.st2{fill:#3E3A39;}
	.st3{fill:url(#SVGID_00000124128210270537830860000004638566040348471982_);}
	.st4{fill:url(#SVGID_00000033346345230745164920000004490854770025930922_);}
	.st5{fill:url(#SVGID_00000091699742733337982790000013471951815073213354_);}
</style>
<g class="st0">
	<linearGradient id="SVGID_1_" gradientUnits="userSpaceOnUse" x1="111.454" y1="195.7174" x2="175.0793" y2="195.7174">
		<stop  offset="0.1392" style="stop-color:#595757"/>
		<stop  offset="1" style="stop-color:#898989"/>
	</linearGradient>
	<polygon class="st1" points="111.45,202.61 124.19,200.61 130.54,176.26 136.1,207.26 145.08,158.29 155,201.22 161.27,177.02 
		164.92,200.44 175.08,201.37 162.76,204.18 160.72,192.81 155.16,219.2 144.44,180.06 135.79,233.15 130.05,190.99 125.8,204.01 	
		"/>
</g>
<g id="レイヤー_68のコピー">
	<path class="st2" d="M229.01,58.08c-21.87-23.33-52.5-36.18-86.25-36.18h-0.32c-33.74,0-64.37,12.85-86.24,36.17
		c-22.71,24.15-33.74,52.47-33.72,86.56c0,3.67,0.14,17.1,0.46,21.44c0.41,5.6,0.7,9.88,0.93,13.3c0.82,12.22,0.93,13.79,3.18,24.52
		c1.45,6.95,7.65,11.99,14.74,11.99c1.1,0,2.21-0.12,3.29-0.36c3.16-0.7,5.86-2.38,7.88-4.63v11.88c0,6.92,4.47,12.84,10.67,15.01
		c2.38,11.79,12.88,20.75,25.3,20.75c14.24,0,25.82-11.58,25.82-25.82v-55.73c0-14.24-11.58-25.82-25.82-25.82
		c-12.42,0-22.92,8.95-25.3,20.74c-4.29,1.5-7.75,4.8-9.48,8.98c-0.05-0.82-0.11-1.69-0.17-2.67c-0.22-3.36-0.51-7.97-0.98-14.33
		c-0.24-3.31-0.38-15.72-0.38-19.22c0.02-26.79,7.89-47.12,25.54-65.91c16.42-17.42,38.7-26.64,64.43-26.68
		c25.75,0.04,48.03,9.26,64.44,26.67c17.65,18.79,25.53,39.13,25.54,65.92c0,3.51-0.13,15.93-0.38,19.23
		c-0.47,6.36-0.77,10.97-0.98,14.33c-0.05,0.72-0.09,1.38-0.13,2.01c-1.81-3.86-5.11-6.9-9.18-8.32
		c-2.38-11.79-12.88-20.74-25.3-20.74c-14.24,0-25.82,11.58-25.82,25.82v55.73c0,14.24,11.58,25.82,25.82,25.82
		c12.42,0,22.92-8.95,25.3-20.74c6.2-2.17,10.67-8.09,10.67-15.01v-11.5c1.98,2.06,4.56,3.58,7.54,4.24
		c1.08,0.24,2.19,0.36,3.29,0.36c0,0,0,0,0,0c7.09,0,13.29-5.04,14.74-11.99c2.25-10.74,2.35-12.31,3.18-24.53
		c0.23-3.42,0.52-7.7,0.93-13.29c0.32-4.35,0.46-17.78,0.46-21.44C262.75,110.54,251.72,82.22,229.01,58.08z"/>
</g>
<g id="レイヤー_68のコピー_2">
	
		<linearGradient id="SVGID_00000117642746781525276870000003852216359928982201_" gradientUnits="userSpaceOnUse" x1="28.15" y1="118.8958" x2="257.0595" y2="118.8958">
		<stop  offset="0" style="stop-color:#595757"/>
		<stop  offset="1" style="stop-color:#C9CACA"/>
	</linearGradient>
	<path style="fill:url(#SVGID_00000117642746781525276870000003852216359928982201_);" d="M224.88,61.96
		c-20.39-21.74-49.36-34.43-82.27-34.39c-32.91-0.04-61.89,12.64-82.27,34.39c-20.42,21.72-32.2,47.68-32.18,82.68
		c0,3.92,0.15,17,0.45,21.03c1.86,25.29,1.22,23.78,4,37.08c1.07,5.13,6.13,8.39,11.25,7.25c5.03-1.12,8.22-6.07,7.16-11.1
		c-2.69-12.87-1.87-10.42-3.66-34.61c-0.26-3.57-0.39-16.19-0.39-19.64c0.02-30.83,10.24-51.86,27.08-69.8
		c16.88-17.91,40.42-28.42,68.56-28.46c28.14,0.04,51.68,10.55,68.56,28.46c16.84,17.93,27.06,38.96,27.08,69.8
		c0,3.45-0.13,16.07-0.39,19.65c-1.79,24.18-0.97,21.74-3.66,34.61c-1.05,5.04,2.14,9.99,7.16,11.1h0
		c5.12,1.14,10.18-2.12,11.25-7.25c2.78-13.3,2.14-11.78,4-37.08c0.3-4.03,0.45-17.11,0.45-21.03
		C257.08,109.64,245.3,83.68,224.88,61.96z"/>
	
		<linearGradient id="SVGID_00000018195795529123982360000015604694418710523831_" gradientUnits="userSpaceOnUse" x1="37.1277" y1="204.8404" x2="252.6237" y2="204.8404">
		<stop  offset="0.1392" style="stop-color:#595757"/>
		<stop  offset="1" style="stop-color:#C9CACA"/>
	</linearGradient>
	<path style="fill:url(#SVGID_00000018195795529123982360000015604694418710523831_);" d="M88.94,156.82
		c-11.03,0-19.98,8.87-20.14,19.86c-5.62,0.03-10.17,4.59-10.17,10.22v1.48v32.91v1.48c0,5.63,4.55,10.19,10.17,10.22
		c0.16,10.99,9.11,19.86,20.14,19.86c11.13,0,20.15-9.02,20.15-20.15V221.3v-32.91v-11.41C109.1,165.84,100.07,156.82,88.94,156.82z
		"/>
	
		<linearGradient id="SVGID_00000018235137895722691000000006038564722581881476_" gradientUnits="userSpaceOnUse" x1="37.1277" y1="204.8404" x2="252.6237" y2="204.8404">
		<stop  offset="0.1392" style="stop-color:#595757"/>
		<stop  offset="1" style="stop-color:#C9CACA"/>
	</linearGradient>
	<path style="fill:url(#SVGID_00000018235137895722691000000006038564722581881476_);" d="M196.61,156.82
		c11.03,0,19.98,8.87,20.14,19.86c5.62,0.03,10.17,4.59,10.17,10.22v1.48v32.91v1.48c0,5.63-4.55,10.19-10.17,10.22
		c-0.16,10.99-9.11,19.86-20.14,19.86c-11.13,0-20.15-9.02-20.15-20.15V221.3v-32.91v-11.41
		C176.46,165.84,185.48,156.82,196.61,156.82z"/>
</g>
</svg>
